<svg width="469" height="150" viewBox="0 0 469 150" fill="none" xmlns="http://www.w3.org/2000/svg">
<path d="M11 18H64L63.9879 18.0086L64.0312 18L58 33H52L53.5385 23H26V97H39C47.9268 97 58 93.0001 58 83C58 74.0552 50.8191 69.54 43.2858 64.8032C36.5018 60.5375 29.4319 56.0921 27.063 48.0702C28.9609 46.5594 31.2399 44.7857 33.368 43.1294C34.2877 42.4135 35.1796 41.7194 36 41.0782C37.9659 49.9269 44.834 54.6079 51.6074 59.2243C59.3659 64.5121 67 69.7152 67 81C67 96.0001 51.8788 102 39.2018 102H8L11 97H16V23H8L11 18Z" fill="black"/>
<path d="M69 70.0625L70 73L75 71.8702V102H80L95.6423 84.1231C95.8309 86.0787 96.1282 88.0204 96.5651 89.9369C97.8962 95.7762 100.721 101.093 104 106.062C105.277 105.312 106.31 104.717 107.406 104.084C108.456 103.479 109.564 102.84 111 102C107.978 97.6612 105.59 92.8188 104.385 87.654C102.656 80.2436 103.167 72.4998 104 65L96 67C95.7239 69.9102 95.4916 72.8633 95.4067 75.8209L83 90V64.875L69 70.0625Z" fill="black"/>
<path fill-rule="evenodd" clip-rule="evenodd" d="M109.001 80.0049C109.001 79.6009 109 79.2052 109 78.8174C108.997 67.9253 108.996 63.2635 111.375 56.6924C113.481 50.876 117.602 46.4092 123.5 44.1947C128.071 42.4789 133.043 42.5001 137.884 42.5206C138.41 42.5229 138.933 42.5251 139.455 42.5251C141.275 39.8325 142.663 37.556 144.082 35.0645C144.939 35.4263 145.685 35.7727 146.557 36.1774C146.705 36.2466 146.858 36.3175 147.016 36.3905C145.579 40.1585 144.28 43.4587 142.896 46.9209C141.577 50.2227 138.399 51.3739 135.073 51.6978C133.599 51.8412 132.13 51.932 130.579 52.028C128.928 52.1301 127.183 52.238 125.241 52.4212C118.063 53.0986 114.878 58.6512 113.5 64.4424C112.884 67.0311 112.604 69.7326 112.478 72.8038C113.643 71.2187 115.034 69.7886 116.775 68.5734C120.321 66.0992 124.586 65.0431 128.928 65.0007C133.999 64.9513 137.752 67.0426 140.372 70.9668C142.876 74.718 143.154 79.2846 142.944 83.6263C142.695 88.7707 141.315 93.8593 137.423 97.5537C134.192 100.62 129.631 102.991 125.203 103C120.632 103.009 116.767 99.9401 113.861 96.7705C110.552 93.1615 109 89.075 109.001 84.0027C109 82.4085 109 81.4446 109.001 80.0049ZM118 84.1659V76.2496C118 72.4302 120.565 69.9977 124.5 70.0012C132 69.9998 134 78.9998 134 86.9212C134 91.9998 132 98.0001 128 97.9996C122.639 98 118.171 88.6099 118 84.1659Z" fill="black"/>
<path d="M175.36 101.332C176.116 100.95 176.957 100.525 178.002 100C174.348 94.1538 170.908 88.1611 168.002 82C165.258 76.1828 163.006 70 161.002 64C157.877 65.5469 155.604 66.6875 153.002 68C153.477 69.426 153.971 70.8657 154.483 72.3093C148.485 79.4819 144 87.9204 144 97.5C144 99.0062 144.096 100.511 144.308 102H154.502C152.871 99.2822 152.034 95.1594 152.002 92C151.949 86.7155 153.783 81.8404 156.331 77.3105C157.472 80.2662 158.694 83.1909 160.002 86C162.909 92.2423 166.125 98.3133 170.002 104C172.323 102.867 173.618 102.212 175.36 101.332Z" fill="black"/>
<path d="M175 70.0625L176 73L181 71.8702V102H186L201.642 84.1231C201.831 86.0787 202.128 88.0204 202.565 89.9369C203.896 95.7762 206.721 101.093 210 106.062C211.277 105.312 212.31 104.717 213.406 104.084C214.456 103.479 215.564 102.84 217 102C213.978 97.6612 211.59 92.8188 210.385 87.654C208.656 80.2436 209.167 72.4998 210 65L202 67C201.724 69.9102 201.492 72.8633 201.407 75.8209L189 90V64.875L175 70.0625Z" fill="black"/>
<path fill-rule="evenodd" clip-rule="evenodd" d="M253 40C231 39.9999 215 55 215 77C215 97 231 114 253 114C275 114 291.003 97 290.998 77C291.002 55 275 39.9999 253 40ZM224 73C224 90.4375 234 109 255 109C269 109 282 97.3438 281.998 80.875C282 61.1854 272 45 251 45C237 45 224 56.5312 224 73Z" fill="black"/>
<path d="M254 15L201 47L204 49L250.081 21.1777L301 50L309 46L254 15Z" fill="black"/>
<path fill-rule="evenodd" clip-rule="evenodd" d="M251 62H236V76H251V62ZM237 63H250V67H237V63ZM237 68V75H243V68H237ZM244 75H250V68H244V75Z" fill="black"/>
<path fill-rule="evenodd" clip-rule="evenodd" d="M251 80V94H236V80H251ZM237 86V93H243V86H237ZM237 85H250V81H237V85ZM250 86H244V93H250V86Z" fill="black"/>
<path fill-rule="evenodd" clip-rule="evenodd" d="M270 62V76H255V62H270ZM269 63H256V67H269V63ZM269 68H263V75H269V68ZM262 75V68H256V75H262Z" fill="black"/>
<path fill-rule="evenodd" clip-rule="evenodd" d="M270 80V94H255V80H270ZM256 86V93H262V86H256ZM256 85H269V81H256V85ZM269 86H263V93H269V86Z" fill="black"/>
<path d="M241 119H266L265 122H240L241 119Z" fill="black"/>
<path d="M234 127H273L272 130H233L234 127Z" fill="black"/>
<path d="M280 135H227L226 138H279L280 135Z" fill="black"/>
<path d="M331.985 71H321V102H313V71H305V102H297V71L296 66H343L341.969 67.2882C338.527 72.5496 336.481 78.6769 336.5 85C336.521 92.0734 339.285 98.7614 344 104C341.172 105.438 338.969 106.547 336 108C331.504 101.818 328.554 94.7226 328.5 87C328.461 81.5296 329.648 75.9693 331.985 71Z" fill="black"/>
<path fill-rule="evenodd" clip-rule="evenodd" d="M362.612 96.873C368.366 97.0602 372.321 93.3261 376.166 89.4394C376.455 89.6916 376.765 89.9142 377.078 90.1379C377.39 90.3619 377.704 90.5871 378 90.8444C375.934 94.4109 373.071 97.5443 369.614 99.7693C366.522 101.76 362.772 102.933 359.086 102.998C354.641 103.075 350.202 101.31 347.092 98.0771C344.411 95.2906 342.996 91.3217 343 87.4664C342.994 81.4243 345.446 75.2539 349.627 70.9337C353.491 66.942 358.832 65.1073 364.305 65.0025C369.503 64.9029 374.493 67.8244 374.566 73.5972C374.636 79.1429 369.983 82.9951 365.561 85.6264C361.523 88.029 357.033 89.5833 352.387 90.0295C354.186 94.0422 357.661 96.7119 362.612 96.873ZM366.376 76.7643C366.376 73.0575 364.305 70.9336 359.81 70.9336C356.381 70.9911 353.488 73.2254 352.084 76.3403C350.923 78.9169 350.809 81.7529 351.035 84.5309C351.087 85.1674 351.168 85.7893 351.278 86.3942C353.918 86.2544 356.577 85.8279 359.011 84.8489C362.358 83.5027 366.437 80.8673 366.376 76.7643Z" fill="black"/>
<path d="M411.36 101.332C412.116 100.95 412.957 100.525 414.002 100C410.348 94.1538 406.908 88.1611 404.002 82C401.258 76.1828 399.006 70 397.002 64C393.877 65.5469 391.604 66.6875 389.002 68C389.477 69.426 389.971 70.8657 390.483 72.3093C384.485 79.4819 380 87.9204 380 97.5C380 99.0062 380.096 100.511 380.308 102H390.502C388.871 99.2822 388.034 95.1594 388.002 92C387.949 86.7155 389.783 81.8404 392.331 77.3105C393.472 80.2662 394.694 83.1909 396.002 86C398.909 92.2423 402.125 98.3133 406.002 104C408.323 102.867 409.618 102.212 411.36 101.332Z" fill="black"/>
<path fill-rule="evenodd" clip-rule="evenodd" d="M424 40L416 42V100H416.009C416.006 100.003 416.003 100.006 416 100.008C420.446 101.614 426 102.983 431 103C441 103 449.387 94.6689 448.989 84.8588C448.691 77.4992 442.908 69.7445 435.228 70.0065C430.009 70.1845 426.846 72.4328 424 75.086V40ZM424 79.5282V96.8411C427.996 98.4945 432.754 99.9367 436.417 98.5661C439.934 97.2502 441.506 92.9005 441.5 89.4219C441.49 83.8921 439.607 77.0153 432.962 76.8981C429.184 76.8315 426.828 77.4902 424 79.5282Z" fill="black"/>
</svg>
